<svg xmlns="http://www.w3.org/2000/svg" xmlns:xlink="http://www.w3.org/1999/xlink" width="208" zoomAndPan="magnify" viewBox="0 0 156 32.999998" height="44" preserveAspectRatio="xMidYMid meet" version="1.0"><defs><g/><clipPath id="48da054a75"><path d="M 0 18.378906 L 22.367188 18.378906 L 22.367188 25.761719 L 0 25.761719 Z M 0 18.378906 " clip-rule="nonzero"/></clipPath><clipPath id="52243829d1"><path d="M 3.820312 12.191406 L 22.367188 12.191406 L 22.367188 17.238281 L 3.820312 17.238281 Z M 3.820312 12.191406 " clip-rule="nonzero"/></clipPath><clipPath id="3d0491f569"><path d="M 7.28125 7.238281 L 22.367188 7.238281 L 22.367188 10.878906 L 7.28125 10.878906 Z M 7.28125 7.238281 " clip-rule="nonzero"/></clipPath></defs><g clip-path="url(#48da054a75)"><path fill="#ffffff" d="M 0 18.378906 L 22.375 18.378906 L 22.375 25.761719 L 0 25.761719 Z M 0 18.378906 " fill-opacity="1" fill-rule="nonzero"/></g><g clip-path="url(#52243829d1)"><path fill="#ffffff" d="M 3.820312 12.191406 L 22.363281 12.191406 L 22.363281 17.238281 L 3.820312 17.238281 Z M 3.820312 12.191406 " fill-opacity="1" fill-rule="nonzero"/></g><g clip-path="url(#3d0491f569)"><path fill="#ffffff" d="M 7.28125 7.238281 L 22.375 7.238281 L 22.375 10.878906 L 7.28125 10.878906 Z M 7.28125 7.238281 " fill-opacity="1" fill-rule="nonzero"/></g><g fill="#ffffff" fill-opacity="1"><g transform="translate(24.625278, 22.623719)"><g><path d="M 3.640625 -7.84375 C 4.179688 -8.65625 4.828125 -9.0625 5.578125 -9.0625 C 6.742188 -9.0625 7.613281 -8.566406 8.1875 -7.578125 C 8.3125 -7.742188 8.460938 -7.921875 8.640625 -8.109375 C 8.816406 -8.296875 9.097656 -8.5 9.484375 -8.71875 C 9.878906 -8.945312 10.285156 -9.0625 10.703125 -9.0625 C 11.617188 -9.0625 12.382812 -8.707031 13 -8 C 13.613281 -7.300781 13.921875 -6.140625 13.921875 -4.515625 L 13.921875 -1.515625 C 13.921875 -1.242188 13.910156 -1.039062 13.890625 -0.90625 C 13.878906 -0.78125 13.828125 -0.632812 13.734375 -0.46875 C 13.585938 -0.15625 13.148438 0 12.421875 0 C 11.691406 0 11.25 -0.160156 11.09375 -0.484375 C 11.007812 -0.648438 10.957031 -0.800781 10.9375 -0.9375 C 10.925781 -1.070312 10.921875 -1.269531 10.921875 -1.53125 L 10.921875 -4.53125 C 10.921875 -5.53125 10.566406 -6.03125 9.859375 -6.03125 C 9.453125 -6.03125 9.175781 -5.894531 9.03125 -5.625 C 8.894531 -5.363281 8.828125 -4.992188 8.828125 -4.515625 L 8.828125 -1.515625 C 8.828125 -1.234375 8.816406 -1.03125 8.796875 -0.90625 C 8.785156 -0.78125 8.734375 -0.632812 8.640625 -0.46875 C 8.472656 -0.15625 8.023438 0 7.296875 0 C 6.578125 0 6.132812 -0.160156 5.96875 -0.484375 C 5.894531 -0.648438 5.847656 -0.800781 5.828125 -0.9375 C 5.804688 -1.070312 5.796875 -1.269531 5.796875 -1.53125 L 5.796875 -4.53125 C 5.796875 -5.53125 5.441406 -6.03125 4.734375 -6.03125 C 4.046875 -6.03125 3.703125 -5.53125 3.703125 -4.53125 L 3.703125 -1.5 C 3.703125 -1.226562 3.691406 -1.023438 3.671875 -0.890625 C 3.660156 -0.765625 3.609375 -0.617188 3.515625 -0.453125 C 3.347656 -0.148438 2.90625 0 2.1875 0 C 1.457031 0 1.015625 -0.15625 0.859375 -0.46875 C 0.773438 -0.632812 0.722656 -0.78125 0.703125 -0.90625 C 0.691406 -1.03125 0.6875 -1.234375 0.6875 -1.515625 L 0.6875 -7.5625 C 0.6875 -7.820312 0.691406 -8.015625 0.703125 -8.140625 C 0.722656 -8.273438 0.78125 -8.421875 0.875 -8.578125 C 1.050781 -8.890625 1.457031 -9.046875 2.09375 -9.046875 C 2.738281 -9.046875 3.15625 -8.941406 3.34375 -8.734375 C 3.539062 -8.535156 3.640625 -8.238281 3.640625 -7.84375 Z M 3.640625 -7.84375 "/></g></g></g><g fill="#ffffff" fill-opacity="1"><g transform="translate(38.536998, 22.623719)"><g><path d="M 0.421875 -4.515625 C 0.421875 -5.890625 0.898438 -7.019531 1.859375 -7.90625 C 2.828125 -8.800781 3.925781 -9.25 5.15625 -9.25 C 6.394531 -9.25 7.488281 -8.804688 8.4375 -7.921875 C 9.394531 -7.035156 9.875 -5.90625 9.875 -4.53125 C 9.875 -3.582031 9.625 -2.738281 9.125 -2 C 8.632812 -1.257812 8.035156 -0.710938 7.328125 -0.359375 C 6.628906 -0.015625 5.898438 0.15625 5.140625 0.15625 C 4.390625 0.15625 3.660156 -0.03125 2.953125 -0.40625 C 2.242188 -0.78125 1.644531 -1.328125 1.15625 -2.046875 C 0.664062 -2.773438 0.421875 -3.597656 0.421875 -4.515625 Z M 4.015625 -3.28125 C 4.378906 -3.007812 4.75 -2.875 5.125 -2.875 C 5.507812 -2.875 5.890625 -3.015625 6.265625 -3.296875 C 6.640625 -3.578125 6.828125 -4 6.828125 -4.5625 C 6.828125 -5.125 6.648438 -5.539062 6.296875 -5.8125 C 5.941406 -6.09375 5.554688 -6.234375 5.140625 -6.234375 C 4.734375 -6.234375 4.351562 -6.085938 4 -5.796875 C 3.644531 -5.515625 3.46875 -5.09375 3.46875 -4.53125 C 3.46875 -3.976562 3.648438 -3.5625 4.015625 -3.28125 Z M 4.015625 -3.28125 "/></g></g></g><g fill="#ffffff" fill-opacity="1"><g transform="translate(48.137758, 22.623719)"><g><path d="M 5.65625 -9.03125 C 6.664062 -9.03125 7.597656 -8.578125 8.453125 -7.671875 C 9.304688 -6.765625 9.734375 -5.710938 9.734375 -4.515625 C 9.734375 -3.328125 9.304688 -2.28125 8.453125 -1.375 C 7.609375 -0.476562 6.703125 -0.03125 5.734375 -0.03125 C 4.765625 -0.03125 4.070312 -0.304688 3.65625 -0.859375 C 3.5625 -0.296875 3.070312 -0.015625 2.1875 -0.015625 C 1.457031 -0.015625 1.015625 -0.171875 0.859375 -0.484375 C 0.773438 -0.648438 0.722656 -0.800781 0.703125 -0.9375 C 0.691406 -1.070312 0.6875 -1.269531 0.6875 -1.53125 L 0.6875 -11.78125 C 0.6875 -12.039062 0.691406 -12.234375 0.703125 -12.359375 C 0.722656 -12.492188 0.773438 -12.644531 0.859375 -12.8125 C 1.015625 -13.125 1.460938 -13.28125 2.203125 -13.28125 C 2.921875 -13.28125 3.351562 -13.125 3.5 -12.8125 C 3.59375 -12.632812 3.644531 -12.476562 3.65625 -12.34375 C 3.675781 -12.21875 3.6875 -12.023438 3.6875 -11.765625 L 3.6875 -8.1875 C 4.144531 -8.75 4.800781 -9.03125 5.65625 -9.03125 Z M 4.140625 -3.484375 C 4.421875 -3.171875 4.773438 -3.015625 5.203125 -3.015625 C 5.628906 -3.015625 5.988281 -3.171875 6.28125 -3.484375 C 6.582031 -3.796875 6.734375 -4.140625 6.734375 -4.515625 C 6.734375 -4.890625 6.59375 -5.234375 6.3125 -5.546875 C 6.039062 -5.867188 5.675781 -6.03125 5.21875 -6.03125 C 4.757812 -6.03125 4.394531 -5.867188 4.125 -5.546875 C 3.851562 -5.222656 3.71875 -4.875 3.71875 -4.5 C 3.71875 -4.132812 3.859375 -3.796875 4.140625 -3.484375 Z M 4.140625 -3.484375 "/></g></g></g><g fill="#ffffff" fill-opacity="1"><g transform="translate(57.601119, 22.623719)"><g><path d="M 0.6875 -7.53125 C 0.6875 -7.800781 0.691406 -8 0.703125 -8.125 C 0.722656 -8.257812 0.773438 -8.410156 0.859375 -8.578125 C 1.015625 -8.878906 1.460938 -9.03125 2.203125 -9.03125 C 2.742188 -9.03125 3.128906 -8.929688 3.359375 -8.734375 C 3.554688 -8.578125 3.660156 -8.332031 3.671875 -8 C 3.679688 -7.882812 3.6875 -7.71875 3.6875 -7.5 L 3.6875 -1.5 C 3.6875 -1.226562 3.675781 -1.023438 3.65625 -0.890625 C 3.644531 -0.765625 3.59375 -0.617188 3.5 -0.453125 C 3.351562 -0.148438 2.914062 0 2.1875 0 C 1.457031 0 1.015625 -0.15625 0.859375 -0.46875 C 0.773438 -0.632812 0.722656 -0.78125 0.703125 -0.90625 C 0.691406 -1.03125 0.6875 -1.234375 0.6875 -1.515625 Z M 3.515625 -10.71875 C 3.429688 -10.550781 3.28125 -10.429688 3.0625 -10.359375 C 2.84375 -10.296875 2.550781 -10.265625 2.1875 -10.265625 C 1.832031 -10.265625 1.546875 -10.296875 1.328125 -10.359375 C 1.109375 -10.429688 0.953125 -10.550781 0.859375 -10.71875 C 0.773438 -10.894531 0.722656 -11.050781 0.703125 -11.1875 C 0.691406 -11.320312 0.6875 -11.519531 0.6875 -11.78125 C 0.6875 -12.039062 0.691406 -12.234375 0.703125 -12.359375 C 0.722656 -12.492188 0.773438 -12.644531 0.859375 -12.8125 C 1.015625 -13.125 1.460938 -13.28125 2.203125 -13.28125 C 2.921875 -13.28125 3.351562 -13.125 3.5 -12.8125 C 3.59375 -12.632812 3.644531 -12.476562 3.65625 -12.34375 C 3.675781 -12.21875 3.6875 -12.023438 3.6875 -11.765625 C 3.6875 -11.503906 3.675781 -11.304688 3.65625 -11.171875 C 3.644531 -11.035156 3.597656 -10.882812 3.515625 -10.71875 Z M 3.515625 -10.71875 "/></g></g></g><g fill="#ffffff" fill-opacity="1"><g transform="translate(61.276454, 22.623719)"><g><path d="M 0.6875 -11.796875 C 0.6875 -12.054688 0.691406 -12.253906 0.703125 -12.390625 C 0.722656 -12.523438 0.773438 -12.675781 0.859375 -12.84375 C 1.015625 -13.15625 1.460938 -13.3125 2.203125 -13.3125 C 2.898438 -13.3125 3.332031 -13.15625 3.5 -12.84375 C 3.59375 -12.675781 3.644531 -12.519531 3.65625 -12.375 C 3.675781 -12.238281 3.6875 -12.039062 3.6875 -11.78125 L 3.6875 -3.828125 C 3.6875 -3.421875 3.71875 -3.160156 3.78125 -3.046875 C 3.851562 -2.941406 4.007812 -2.890625 4.25 -2.890625 C 4.488281 -2.890625 4.644531 -2.878906 4.71875 -2.859375 C 4.800781 -2.835938 4.898438 -2.789062 5.015625 -2.71875 C 5.242188 -2.5625 5.359375 -2.15625 5.359375 -1.5 C 5.359375 -0.769531 5.242188 -0.328125 5.015625 -0.171875 C 4.710938 0.0351562 4.003906 0.0703125 2.890625 -0.0625 C 2.003906 -0.175781 1.429688 -0.46875 1.171875 -0.9375 C 0.847656 -1.5 0.6875 -2.394531 0.6875 -3.625 Z M 0.6875 -11.796875 "/></g></g></g><g fill="#ffffff" fill-opacity="1"><g transform="translate(66.188402, 22.623719)"><g><path d="M 9.40625 -5.59375 C 9.40625 -4.894531 9.226562 -4.375 8.875 -4.03125 C 8.53125 -3.695312 8.148438 -3.53125 7.734375 -3.53125 L 3.65625 -3.53125 C 3.65625 -3.21875 3.84375 -2.953125 4.21875 -2.734375 C 4.601562 -2.515625 4.984375 -2.40625 5.359375 -2.40625 C 6.023438 -2.40625 6.546875 -2.472656 6.921875 -2.609375 L 7.109375 -2.671875 C 7.378906 -2.804688 7.609375 -2.875 7.796875 -2.875 C 8.160156 -2.875 8.472656 -2.613281 8.734375 -2.09375 C 8.890625 -1.78125 8.96875 -1.519531 8.96875 -1.3125 C 8.96875 -0.289062 7.75 0.21875 5.3125 0.21875 C 4.457031 0.21875 3.703125 0.0703125 3.046875 -0.21875 C 2.390625 -0.507812 1.878906 -0.894531 1.515625 -1.375 C 0.785156 -2.300781 0.421875 -3.335938 0.421875 -4.484375 C 0.421875 -5.921875 0.890625 -7.070312 1.828125 -7.9375 C 2.765625 -8.800781 3.929688 -9.234375 5.328125 -9.234375 C 6.910156 -9.234375 8.078125 -8.675781 8.828125 -7.5625 C 9.210938 -6.957031 9.40625 -6.300781 9.40625 -5.59375 Z M 5.78125 -5.09375 C 6.21875 -5.09375 6.4375 -5.28125 6.4375 -5.65625 C 6.4375 -5.914062 6.335938 -6.125 6.140625 -6.28125 C 5.941406 -6.445312 5.65625 -6.53125 5.28125 -6.53125 C 4.90625 -6.53125 4.535156 -6.375 4.171875 -6.0625 C 3.804688 -5.757812 3.625 -5.4375 3.625 -5.09375 Z M 5.78125 -5.09375 "/></g></g></g><g fill="#ffffff" fill-opacity="1"><g transform="translate(75.325432, 22.623719)"><g><path d="M 0.6875 -7.53125 C 0.6875 -7.800781 0.691406 -8 0.703125 -8.125 C 0.722656 -8.257812 0.773438 -8.410156 0.859375 -8.578125 C 1.015625 -8.878906 1.460938 -9.03125 2.203125 -9.03125 C 2.742188 -9.03125 3.128906 -8.929688 3.359375 -8.734375 C 3.554688 -8.578125 3.660156 -8.332031 3.671875 -8 C 3.679688 -7.882812 3.6875 -7.71875 3.6875 -7.5 L 3.6875 -1.5 C 3.6875 -1.226562 3.675781 -1.023438 3.65625 -0.890625 C 3.644531 -0.765625 3.59375 -0.617188 3.5 -0.453125 C 3.351562 -0.148438 2.914062 0 2.1875 0 C 1.457031 0 1.015625 -0.15625 0.859375 -0.46875 C 0.773438 -0.632812 0.722656 -0.78125 0.703125 -0.90625 C 0.691406 -1.03125 0.6875 -1.234375 0.6875 -1.515625 Z M 3.515625 -10.71875 C 3.429688 -10.550781 3.28125 -10.429688 3.0625 -10.359375 C 2.84375 -10.296875 2.550781 -10.265625 2.1875 -10.265625 C 1.832031 -10.265625 1.546875 -10.296875 1.328125 -10.359375 C 1.109375 -10.429688 0.953125 -10.550781 0.859375 -10.71875 C 0.773438 -10.894531 0.722656 -11.050781 0.703125 -11.1875 C 0.691406 -11.320312 0.6875 -11.519531 0.6875 -11.78125 C 0.6875 -12.039062 0.691406 -12.234375 0.703125 -12.359375 C 0.722656 -12.492188 0.773438 -12.644531 0.859375 -12.8125 C 1.015625 -13.125 1.460938 -13.28125 2.203125 -13.28125 C 2.921875 -13.28125 3.351562 -13.125 3.5 -12.8125 C 3.59375 -12.632812 3.644531 -12.476562 3.65625 -12.34375 C 3.675781 -12.21875 3.6875 -12.023438 3.6875 -11.765625 C 3.6875 -11.503906 3.675781 -11.304688 3.65625 -11.171875 C 3.644531 -11.035156 3.597656 -10.882812 3.515625 -10.71875 Z M 3.515625 -10.71875 "/></g></g></g><g fill="#ffffff" fill-opacity="1"><g transform="translate(79.000767, 22.623719)"><g><path d="M 5.71875 -9.046875 C 6.863281 -9.046875 7.816406 -8.609375 8.578125 -7.734375 C 9.335938 -6.859375 9.71875 -5.789062 9.71875 -4.53125 L 9.71875 -1.515625 C 9.71875 -1.242188 9.707031 -1.039062 9.6875 -0.90625 C 9.675781 -0.78125 9.628906 -0.640625 9.546875 -0.484375 C 9.390625 -0.171875 8.941406 -0.015625 8.203125 -0.015625 C 7.390625 -0.015625 6.921875 -0.226562 6.796875 -0.65625 C 6.734375 -0.84375 6.703125 -1.132812 6.703125 -1.53125 L 6.703125 -4.546875 C 6.703125 -5.015625 6.566406 -5.378906 6.296875 -5.640625 C 6.023438 -5.910156 5.660156 -6.046875 5.203125 -6.046875 C 4.753906 -6.046875 4.390625 -5.90625 4.109375 -5.625 C 3.828125 -5.351562 3.6875 -4.992188 3.6875 -4.546875 L 3.6875 -1.515625 C 3.6875 -1.242188 3.675781 -1.039062 3.65625 -0.90625 C 3.644531 -0.78125 3.59375 -0.640625 3.5 -0.484375 C 3.351562 -0.171875 2.914062 -0.015625 2.1875 -0.015625 C 1.457031 -0.015625 1.015625 -0.171875 0.859375 -0.484375 C 0.773438 -0.648438 0.722656 -0.800781 0.703125 -0.9375 C 0.691406 -1.070312 0.6875 -1.269531 0.6875 -1.53125 L 0.6875 -7.609375 C 0.6875 -7.859375 0.691406 -8.046875 0.703125 -8.171875 C 0.722656 -8.304688 0.78125 -8.457031 0.875 -8.625 C 1.03125 -8.90625 1.472656 -9.046875 2.203125 -9.046875 C 2.898438 -9.046875 3.328125 -8.914062 3.484375 -8.65625 C 3.597656 -8.457031 3.65625 -8.222656 3.65625 -7.953125 C 3.695312 -8.035156 3.796875 -8.148438 3.953125 -8.296875 C 4.117188 -8.441406 4.28125 -8.5625 4.4375 -8.65625 C 4.820312 -8.914062 5.25 -9.046875 5.71875 -9.046875 Z M 5.71875 -9.046875 "/></g></g></g><g fill="#ffffff" fill-opacity="1"><g transform="translate(88.704577, 22.623719)"><g><path d="M 5.96875 -9.03125 C 6.757812 -9.03125 7.222656 -8.8125 7.359375 -8.375 C 7.429688 -8.15625 7.46875 -7.867188 7.46875 -7.515625 C 7.46875 -7.160156 7.429688 -6.878906 7.359375 -6.671875 C 7.285156 -6.460938 7.164062 -6.3125 7 -6.21875 C 6.757812 -6.082031 6.410156 -6.015625 5.953125 -6.015625 L 4.859375 -6.078125 L 4.859375 -1.484375 C 4.859375 -1.046875 4.800781 -0.71875 4.6875 -0.5 C 4.582031 -0.289062 4.414062 -0.148438 4.1875 -0.078125 C 3.96875 -0.015625 3.679688 0.015625 3.328125 0.015625 C 2.972656 0.015625 2.6875 -0.0195312 2.46875 -0.09375 C 2.257812 -0.164062 2.109375 -0.285156 2.015625 -0.453125 C 1.929688 -0.617188 1.878906 -0.769531 1.859375 -0.90625 C 1.847656 -1.039062 1.84375 -1.242188 1.84375 -1.515625 L 1.84375 -6.0625 L 1.21875 -6.0625 C 0.914062 -6.082031 0.703125 -6.148438 0.578125 -6.265625 C 0.359375 -6.484375 0.25 -6.898438 0.25 -7.515625 C 0.25 -8.453125 0.585938 -8.921875 1.265625 -8.921875 L 1.84375 -8.921875 L 1.84375 -9.84375 C 1.84375 -10.71875 2.15625 -11.515625 2.78125 -12.234375 C 3.40625 -12.953125 4.316406 -13.3125 5.515625 -13.3125 C 5.773438 -13.3125 5.96875 -13.300781 6.09375 -13.28125 C 6.226562 -13.257812 6.382812 -13.207031 6.5625 -13.125 C 6.863281 -12.96875 7.015625 -12.523438 7.015625 -11.796875 C 7.015625 -11.242188 6.921875 -10.847656 6.734375 -10.609375 C 6.566406 -10.429688 6.3125 -10.328125 5.96875 -10.296875 C 5.875 -10.296875 5.71875 -10.296875 5.5 -10.296875 C 5.070312 -10.296875 4.859375 -10.15625 4.859375 -9.875 L 4.859375 -8.921875 Z M 5.96875 -9.03125 "/></g></g></g><g fill="#ffffff" fill-opacity="1"><g transform="translate(95.729066, 22.623719)"><g><path d="M 0.421875 -4.515625 C 0.421875 -5.890625 0.898438 -7.019531 1.859375 -7.90625 C 2.828125 -8.800781 3.925781 -9.25 5.15625 -9.25 C 6.394531 -9.25 7.488281 -8.804688 8.4375 -7.921875 C 9.394531 -7.035156 9.875 -5.90625 9.875 -4.53125 C 9.875 -3.582031 9.625 -2.738281 9.125 -2 C 8.632812 -1.257812 8.035156 -0.710938 7.328125 -0.359375 C 6.628906 -0.015625 5.898438 0.15625 5.140625 0.15625 C 4.390625 0.15625 3.660156 -0.03125 2.953125 -0.40625 C 2.242188 -0.78125 1.644531 -1.328125 1.15625 -2.046875 C 0.664062 -2.773438 0.421875 -3.597656 0.421875 -4.515625 Z M 4.015625 -3.28125 C 4.378906 -3.007812 4.75 -2.875 5.125 -2.875 C 5.507812 -2.875 5.890625 -3.015625 6.265625 -3.296875 C 6.640625 -3.578125 6.828125 -4 6.828125 -4.5625 C 6.828125 -5.125 6.648438 -5.539062 6.296875 -5.8125 C 5.941406 -6.09375 5.554688 -6.234375 5.140625 -6.234375 C 4.734375 -6.234375 4.351562 -6.085938 4 -5.796875 C 3.644531 -5.515625 3.46875 -5.09375 3.46875 -4.53125 C 3.46875 -3.976562 3.648438 -3.5625 4.015625 -3.28125 Z M 4.015625 -3.28125 "/></g></g></g><g fill="#ffffff" fill-opacity="1"><g transform="translate(105.329826, 22.623719)"><g><path d="M 5.703125 -9.015625 C 6.847656 -9.015625 7.800781 -8.578125 8.5625 -7.703125 C 9.320312 -6.835938 9.703125 -5.773438 9.703125 -4.515625 L 9.703125 -1.5 C 9.703125 -1.226562 9.691406 -1.023438 9.671875 -0.890625 C 9.660156 -0.765625 9.609375 -0.617188 9.515625 -0.453125 C 9.367188 -0.148438 8.925781 0 8.1875 0 C 7.488281 0 7.054688 -0.148438 6.890625 -0.453125 C 6.796875 -0.617188 6.738281 -0.769531 6.71875 -0.90625 C 6.707031 -1.039062 6.703125 -1.25 6.703125 -1.53125 L 6.703125 -4.53125 C 6.703125 -5 6.566406 -5.363281 6.296875 -5.625 C 6.035156 -5.894531 5.703125 -6.03125 5.296875 -6.03125 C 4.890625 -6.03125 4.53125 -5.90625 4.21875 -5.65625 C 3.914062 -5.40625 3.738281 -5.128906 3.6875 -4.828125 L 3.6875 -1.5 C 3.6875 -1.226562 3.675781 -1.023438 3.65625 -0.890625 C 3.644531 -0.765625 3.59375 -0.617188 3.5 -0.453125 C 3.351562 -0.148438 2.914062 0 2.1875 0 C 1.457031 0 1.015625 -0.15625 0.859375 -0.46875 C 0.773438 -0.632812 0.722656 -0.78125 0.703125 -0.90625 C 0.691406 -1.03125 0.6875 -1.234375 0.6875 -1.515625 L 0.6875 -11.78125 C 0.6875 -12.039062 0.691406 -12.234375 0.703125 -12.359375 C 0.722656 -12.492188 0.773438 -12.644531 0.859375 -12.8125 C 1.015625 -13.125 1.460938 -13.28125 2.203125 -13.28125 C 2.921875 -13.28125 3.351562 -13.125 3.5 -12.8125 C 3.59375 -12.632812 3.644531 -12.476562 3.65625 -12.34375 C 3.675781 -12.21875 3.6875 -12.023438 3.6875 -11.765625 L 3.6875 -7.96875 C 4.257812 -8.664062 4.929688 -9.015625 5.703125 -9.015625 Z M 5.703125 -9.015625 "/></g></g></g><g fill="#ffffff" fill-opacity="1"><g transform="translate(115.016458, 22.623719)"><g><path d="M 4.703125 -0.03125 C 3.546875 -0.03125 2.585938 -0.46875 1.828125 -1.34375 C 1.066406 -2.21875 0.6875 -3.285156 0.6875 -4.546875 L 0.6875 -7.5625 C 0.6875 -7.832031 0.691406 -8.03125 0.703125 -8.15625 C 0.722656 -8.28125 0.773438 -8.429688 0.859375 -8.609375 C 1.015625 -8.910156 1.460938 -9.0625 2.203125 -9.0625 C 3.003906 -9.0625 3.472656 -8.847656 3.609375 -8.421875 C 3.671875 -8.234375 3.703125 -7.9375 3.703125 -7.53125 L 3.703125 -4.53125 C 3.703125 -4.0625 3.835938 -3.695312 4.109375 -3.4375 C 4.378906 -3.175781 4.738281 -3.046875 5.1875 -3.046875 C 5.644531 -3.046875 6.015625 -3.179688 6.296875 -3.453125 C 6.578125 -3.722656 6.71875 -4.082031 6.71875 -4.53125 L 6.71875 -7.578125 C 6.71875 -7.835938 6.722656 -8.03125 6.734375 -8.15625 C 6.753906 -8.289062 6.8125 -8.445312 6.90625 -8.625 C 7.050781 -8.914062 7.488281 -9.0625 8.21875 -9.0625 C 8.945312 -9.0625 9.390625 -8.910156 9.546875 -8.609375 C 9.628906 -8.429688 9.675781 -8.273438 9.6875 -8.140625 C 9.707031 -8.015625 9.71875 -7.820312 9.71875 -7.5625 L 9.71875 -1.484375 C 9.71875 -1.222656 9.707031 -1.023438 9.6875 -0.890625 C 9.675781 -0.765625 9.625 -0.625 9.53125 -0.46875 C 9.351562 -0.164062 8.910156 -0.015625 8.203125 -0.015625 C 7.503906 -0.015625 7.078125 -0.148438 6.921875 -0.421875 C 6.804688 -0.617188 6.75 -0.859375 6.75 -1.140625 C 6.707031 -1.054688 6.601562 -0.9375 6.4375 -0.78125 C 6.28125 -0.632812 6.125 -0.507812 5.96875 -0.40625 C 5.582031 -0.15625 5.160156 -0.03125 4.703125 -0.03125 Z M 4.703125 -0.03125 "/></g></g></g><g fill="#ffffff" fill-opacity="1"><g transform="translate(124.720263, 22.623719)"><g><path d="M 5.65625 -9.03125 C 6.664062 -9.03125 7.597656 -8.578125 8.453125 -7.671875 C 9.304688 -6.765625 9.734375 -5.710938 9.734375 -4.515625 C 9.734375 -3.328125 9.304688 -2.28125 8.453125 -1.375 C 7.609375 -0.476562 6.703125 -0.03125 5.734375 -0.03125 C 4.765625 -0.03125 4.070312 -0.304688 3.65625 -0.859375 C 3.5625 -0.296875 3.070312 -0.015625 2.1875 -0.015625 C 1.457031 -0.015625 1.015625 -0.171875 0.859375 -0.484375 C 0.773438 -0.648438 0.722656 -0.800781 0.703125 -0.9375 C 0.691406 -1.070312 0.6875 -1.269531 0.6875 -1.53125 L 0.6875 -11.78125 C 0.6875 -12.039062 0.691406 -12.234375 0.703125 -12.359375 C 0.722656 -12.492188 0.773438 -12.644531 0.859375 -12.8125 C 1.015625 -13.125 1.460938 -13.28125 2.203125 -13.28125 C 2.921875 -13.28125 3.351562 -13.125 3.5 -12.8125 C 3.59375 -12.632812 3.644531 -12.476562 3.65625 -12.34375 C 3.675781 -12.21875 3.6875 -12.023438 3.6875 -11.765625 L 3.6875 -8.1875 C 4.144531 -8.75 4.800781 -9.03125 5.65625 -9.03125 Z M 4.140625 -3.484375 C 4.421875 -3.171875 4.773438 -3.015625 5.203125 -3.015625 C 5.628906 -3.015625 5.988281 -3.171875 6.28125 -3.484375 C 6.582031 -3.796875 6.734375 -4.140625 6.734375 -4.515625 C 6.734375 -4.890625 6.59375 -5.234375 6.3125 -5.546875 C 6.039062 -5.867188 5.675781 -6.03125 5.21875 -6.03125 C 4.757812 -6.03125 4.394531 -5.867188 4.125 -5.546875 C 3.851562 -5.222656 3.71875 -4.875 3.71875 -4.5 C 3.71875 -4.132812 3.859375 -3.796875 4.140625 -3.484375 Z M 4.140625 -3.484375 "/></g></g></g></svg>